<?xml version="1.0" encoding="utf-8"?>
<!-- Generator: Adobe Illustrator 27.5.0, SVG Export Plug-In . SVG Version: 6.00 Build 0)  -->
<svg version="1.1" id="Capa_2" xmlns="http://www.w3.org/2000/svg" xmlns:xlink="http://www.w3.org/1999/xlink" x="0px" y="0px"
	 viewBox="0 0 2050 2196" style="enable-background:new 0 0 2050 2196;" xml:space="preserve">
<g>
	<g>
		<g>
			<path style="fill:#95331A;" d="M1454.199,909.141c-46.438,70.184-221.047,122.375-429.504,122.375
				c-208.461,0-383.078-52.191-429.508-122.375c-145.938,99.664-238.762,249.078-238.762,416.156
				c0,300.063,299.195,543.313,668.27,543.313c369.066,0,668.258-243.25,668.258-543.313
				C1692.953,1158.219,1600.137,1008.805,1454.199,909.141z"/>
			<path style="fill:#95331A;" d="M592.633,838.598c42.394,72.168,219.719,126.313,432.066,126.313
				c212.336,0,389.656-54.141,432.059-126.301c0.035,0.063,0.063,0.129,0.098,0.191c2.406-11.613,3.672-23.453,3.672-35.477
				c0-61.664-50.648-123.234-111.426-180.387c-60.254,41.867-182.852,70.551-324.406,70.551
				c-141.508,0-264.07-28.664-324.352-70.508c-67.648,60.473-111.488,111.328-111.488,180.344c0,12.019,1.262,23.859,3.668,35.473
				C592.563,838.731,592.594,838.664,592.633,838.598z"/>
		</g>
		<path style="fill:#9B1242;" d="M1318.07,548.457l-0.145-0.637c-5.633-23.723-39.82-35.875-56.172-49.91
			c-15.527-13.328-28.77-29.031-43.449-43.098c-2.891-2.77-5.82-5.5-8.852-8.109c-16.723-14.395-39.035-20.559-56.965-33.406
			c-28.207-20.207-55.047-34.82-87.348-47.699c-12.707-5.063-24.508-10.898-34.52-20.367c-6.395-6.051-12.461-15.379-21.543-17.539
			c-20.781-4.953-40.887,27.195-53.398,39.238c-18.125,17.449-39.695,30.578-62.543,40.91
			c-28.039,12.672-61.16,18.133-87.305,34.453c-9.746,6.082-16.027,15.109-21.375,24.875c-4.727,8.621-8.73,17.816-13.664,26.125
			c-10.488,17.668-48.637,44.922-37.426,69.672c5.953,13.148,25.949,21.129,37.777,27.695c19.824,11.004,40.531,18.723,62.59,23.961
			c62.449,14.836,126.883,20.758,190.965,20.758c40.793,0,82.066-2.324,122.477-7.883c50.09-6.891,103.828-16.969,146.586-45.59
			C1304.535,574.695,1321.32,563.641,1318.07,548.457z"/>
		<g>
			<path style="fill:#EF8700;" d="M700.344,622.981c60.281,41.844,182.844,70.508,324.352,70.508
				c141.555,0,264.152-28.684,324.406-70.551c25.352-17.617,39.746-37.551,39.746-58.688c0-46.117-68.125-86.566-170.543-109.438
				c14.68,14.066,27.922,29.77,43.449,43.098c16.352,14.035,50.539,26.188,56.172,49.91l0.145,0.637
				c3.25,15.184-13.535,26.238-24.309,33.449c-42.758,28.621-96.496,38.699-146.586,45.59c-40.41,5.559-81.684,7.883-122.477,7.883
				c-64.082,0-128.516-5.922-190.965-20.758c-22.059-5.238-42.766-12.957-62.59-23.961c-11.828-6.567-31.824-14.547-37.777-27.695
				c-11.211-24.75,26.938-52.004,37.426-69.672c4.934-8.309,8.937-17.504,13.664-26.125
				c-75.934,23.684-123.918,58.387-123.918,97.082C660.539,585.406,674.957,605.356,700.344,622.981z"/>
			<path style="fill:#EF8700;" d="M1456.855,838.801c-0.035-0.063-0.063-0.129-0.098-0.191
				c-42.402,72.16-219.723,126.301-432.059,126.301c-212.348,0-389.672-54.145-432.066-126.313c-0.039,0.066-0.07,0.133-0.109,0.199
				c-6.238,10.68-9.551,21.762-9.551,33.113c0,12.824,4.305,25.281,12.215,37.23c46.43,70.184,221.047,122.375,429.508,122.375
				c208.457,0,383.066-52.191,429.504-122.375c7.906-11.949,12.211-24.406,12.211-37.23
				C1466.41,860.555,1463.102,849.481,1456.855,838.801z"/>
		</g>
	</g>
	<path style="fill:#F8B700;" d="M1243.18,1579.836c0,152.492-97.82,221.305-218.48,221.305
		c-120.664,0-218.484-68.813-218.484-221.305s218.484-330.91,218.484-330.91S1243.18,1427.344,1243.18,1579.836z"/>
	<path style="fill:#D90667;" d="M1187.738,1578.34c0,119.516-73,173.445-163.039,173.445c-90.043,0-163.039-53.93-163.039-173.445
		c0-119.508,163.039-259.348,163.039-259.348S1187.738,1458.832,1187.738,1578.34z"/>
	<path style="fill:#E885A2;" d="M1146.359,1570.926c0,92-54.469,133.52-121.66,133.52c-67.195,0-121.664-41.52-121.664-133.52
		c0-91.996,121.664-199.645,121.664-199.645S1146.359,1478.93,1146.359,1570.926z"/>
	<path style="fill:#502871;" d="M1096.246,1563.301c0,63.02-71.547,114.094-71.547,114.094s-71.555-51.074-71.555-114.094
		c0-63.016,71.555-114.09,71.555-114.09S1096.246,1500.285,1096.246,1563.301z"/>
	<path style="fill:#25B5B8;" d="M1058.262,1563.301c0,29.563-33.563,53.527-33.563,53.527s-33.57-23.965-33.57-53.527
		c0-29.559,33.57-53.523,33.57-53.523S1058.262,1533.742,1058.262,1563.301z"/>
	<path style="fill:#F8B700;" d="M1641.973,1420.641c0,127.754-66.297,185.398-148.07,185.398
		c-81.777,0-148.078-57.645-148.078-185.398c0-127.75,148.078-277.227,148.078-277.227S1641.973,1292.891,1641.973,1420.641z"/>
	<path style="fill:#D90667;" d="M1619.918,1419.387c0,100.125-49.473,145.305-110.492,145.305
		c-61.031,0-110.504-45.18-110.504-145.305c0-100.121,110.504-217.273,110.504-217.273S1619.918,1319.266,1619.918,1419.387z"/>
	<path style="fill:#E885A2;" d="M1608.367,1413.18c0,77.07-36.922,111.855-82.449,111.855c-45.547,0-82.461-34.785-82.461-111.855
		c0-77.082,82.461-167.262,82.461-167.262S1608.367,1336.098,1608.367,1413.18z"/>
	<path style="fill:#502871;" d="M1590.887,1406.789c0,52.789-48.488,95.582-48.488,95.582s-48.496-42.793-48.496-95.582
		c0-52.793,48.496-95.582,48.496-95.582S1590.887,1353.996,1590.887,1406.789z"/>
	<path style="fill:#25B5B8;" d="M1571.41,1406.789c0,24.766-22.75,44.836-22.75,44.836s-22.75-20.07-22.75-44.836
		s22.75-44.844,22.75-44.844S1571.41,1382.023,1571.41,1406.789z"/>
	<path style="fill:#F8B700;" d="M429.496,1420.641c0,127.754,66.297,185.398,148.07,185.398
		c81.781,0,148.078-57.645,148.078-185.398c0-127.75-148.078-277.227-148.078-277.227S429.496,1292.891,429.496,1420.641z"/>
	<path style="fill:#D90667;" d="M451.555,1419.387c0,100.125,49.473,145.305,110.492,145.305c61.027,0,110.5-45.18,110.5-145.305
		c0-100.121-110.5-217.273-110.5-217.273S451.555,1319.266,451.555,1419.387z"/>
	<path style="fill:#E885A2;" d="M463.105,1413.18c0,77.07,36.918,111.855,82.449,111.855c45.539,0,82.457-34.785,82.457-111.855
		c0-77.082-82.457-167.262-82.457-167.262S463.105,1336.098,463.105,1413.18z"/>
	<path style="fill:#502871;" d="M480.582,1406.789c0,52.789,48.492,95.582,48.492,95.582s48.496-42.793,48.496-95.582
		c0-52.793-48.496-95.582-48.496-95.582S480.582,1353.996,480.582,1406.789z"/>
	<path style="fill:#25B5B8;" d="M500.059,1406.789c0,24.766,22.75,44.836,22.75,44.836s22.746-20.07,22.746-44.836
		s-22.746-44.844-22.746-44.844S500.059,1382.023,500.059,1406.789z"/>
	<path style="fill:#C14619;" d="M1024.699,1061.367c-212.348,0-389.672-54.148-432.066-126.309
		c-25.938,14.613-95.348,68.887-144.563,151.223c-139.57,233.469-79.449,243.543,102.977-9.566
		c54.367-75.438,145.602,17.66,296.359,46.5c283.629,54.258,596.051-37.66,609.352-188.152
		C1414.355,1007.227,1237.035,1061.367,1024.699,1061.367z"/>
	<path style="fill:#C14619;" d="M692.48,654.394c-15.586,11.344-63.508,85.891-69.715,127.586
		c-12.91,86.707,69.227,84.617,113.32-17.691c26.363-61.164,87.504,13.707,178.106,36.078
		c170.457,42.094,426.449-71.141,426.387-145.973C1152.09,758.07,930.945,787.289,692.48,654.394z"/>
	<path style="fill:#F8B700;" d="M838.773,913.863c0,0,8.621-28.398-1.246-45.414c-1.465-2.531-3.043-4.707-4.66-6.688
		c2.547-0.816,5.164-1.816,7.906-3.168c18.477-9.086,28.457-37.105,28.457-37.105s-30.816-7.934-49.293,1.156
		c-2.746,1.344-5.102,2.793-7.254,4.285c-0.891-2.336-1.973-4.75-3.434-7.281c-9.863-17.016-40.27-26.211-40.27-26.211
		s-8.625,28.394,1.242,45.41c1.461,2.523,3.035,4.703,4.652,6.68c-2.543,0.816-5.16,1.813-7.902,3.164
		c-18.473,9.086-28.457,37.102-28.457,37.102s30.824,7.941,49.297-1.145c2.742-1.348,5.098-2.793,7.25-4.289
		c0.887,2.34,1.969,4.754,3.438,7.285C808.363,904.664,838.773,913.863,838.773,913.863z"/>
	<path style="fill:#D90667;" d="M822.773,886.258c0,0,4.668-15.379-0.676-24.598c-0.793-1.367-1.648-2.547-2.52-3.613
		c1.375-0.449,2.793-0.984,4.281-1.723c10-4.922,15.406-20.09,15.406-20.09s-16.691-4.301-26.691,0.625
		c-1.488,0.73-2.766,1.512-3.93,2.324c-0.48-1.269-1.066-2.578-1.859-3.941c-5.344-9.219-21.805-14.199-21.805-14.199
		s-4.668,15.371,0.672,24.59c0.793,1.367,1.645,2.543,2.523,3.621c-1.379,0.441-2.797,0.98-4.281,1.711
		c-10.008,4.922-15.414,20.09-15.414,20.09s16.691,4.305,26.699-0.625c1.48-0.73,2.758-1.512,3.922-2.316
		c0.484,1.27,1.07,2.574,1.863,3.945C806.309,881.273,822.773,886.258,822.773,886.258z"/>
	<path style="fill:#F8B700;" d="M1251.805,903.223c0,0-13.484-26.746-6.73-45.004c0.996-2.719,2.176-5.094,3.426-7.293
		c-2.656-0.43-5.418-1.031-8.359-1.953c-19.828-6.219-34.59-32.383-34.59-32.383s29.016-12.414,48.848-6.195
		c2.945,0.922,5.527,1.996,7.906,3.152c0.473-2.441,1.121-4.984,2.117-7.699c6.75-18.266,35.141-31.859,35.141-31.859
		s13.496,26.742,6.738,45c-1,2.711-2.168,5.086-3.418,7.285c2.652,0.426,5.41,1.02,8.352,1.945
		c19.828,6.219,34.59,32.379,34.59,32.379s-29.023,12.426-48.848,6.207c-2.941-0.922-5.523-2.008-7.91-3.156
		c-0.469,2.445-1.113,4.988-2.109,7.699C1280.203,889.613,1251.805,903.223,1251.805,903.223z"/>
	<path style="fill:#D90667;" d="M1262.754,873.594c0,0-7.305-14.48-3.648-24.375c0.547-1.465,1.184-2.758,1.852-3.941
		c-1.426-0.234-2.922-0.555-4.523-1.059c-10.73-3.367-18.73-17.535-18.73-17.535s15.719-6.73,26.457-3.355
		c1.594,0.5,2.992,1.078,4.281,1.707c0.254-1.324,0.602-2.699,1.145-4.168c3.656-9.891,19.035-17.258,19.035-17.258
		s7.301,14.48,3.645,24.367c-0.539,1.469-1.18,2.762-1.852,3.949c1.438,0.234,2.926,0.555,4.52,1.055
		c10.742,3.363,18.734,17.531,18.734,17.531s-15.719,6.73-26.461,3.359c-1.582-0.5-2.984-1.086-4.277-1.707
		c-0.25,1.328-0.605,2.703-1.145,4.172C1278.129,866.227,1262.754,873.594,1262.754,873.594z"/>
	<path style="fill:#F8B700;" d="M1073.754,937.41c0,0,1.266-29.465-12.602-43.922c-2.063-2.152-4.141-3.93-6.215-5.512
		c2.27-1.344,4.566-2.871,6.898-4.766c15.695-12.773,18.379-42.16,18.379-42.16s-31.98-1.16-47.672,11.617
		c-2.332,1.898-4.262,3.809-5.98,5.719c-1.453-2.086-3.109-4.211-5.172-6.352c-13.863-14.461-45.754-16.93-45.754-16.93
		s-1.266,29.461,12.602,43.918c2.059,2.145,4.137,3.926,6.207,5.508c-2.269,1.336-4.566,2.863-6.898,4.762
		c-15.688,12.773-18.375,42.156-18.375,42.156s31.98,1.164,47.676-11.609c2.328-1.898,4.258-3.809,5.977-5.719
		c1.453,2.09,3.109,4.203,5.172,6.359C1041.863,934.934,1073.754,937.41,1073.754,937.41z"/>
	<path style="fill:#D90667;" d="M1051.262,913.957c0,0,0.68-15.961-6.828-23.789c-1.113-1.156-2.238-2.121-3.359-2.981
		c1.227-0.723,2.473-1.551,3.73-2.586c8.5-6.914,9.953-22.824,9.953-22.824s-17.32-0.629-25.813,6.293
		c-1.266,1.023-2.309,2.059-3.242,3.098c-0.781-1.137-1.684-2.281-2.793-3.441c-7.516-7.832-24.781-9.172-24.781-9.172
		s-0.684,15.953,6.828,23.789c1.109,1.16,2.238,2.117,3.363,2.981c-1.231,0.719-2.477,1.547-3.738,2.578
		c-8.5,6.914-9.953,22.824-9.953,22.824s17.316,0.633,25.816-6.289c1.258-1.031,2.305-2.063,3.234-3.094
		c0.793,1.133,1.688,2.281,2.805,3.442C1033.996,912.617,1051.262,913.957,1051.262,913.957z"/>
	<path style="fill:#68B42E;" d="M1184.398,878.848c0,22.227-22.691,40.25-22.691,40.25s-22.695-18.023-22.695-40.25
		c0-22.223,22.695-40.25,22.695-40.25S1184.398,856.625,1184.398,878.848z"/>
	<path style="fill:#68B42E;" d="M1317.844,1301.555c11.121,59.508-40.602,117.414-40.602,117.414s-69.797-38.602-80.926-98.113
		c-11.141-59.516,40.59-117.414,40.59-117.414S1306.703,1242.035,1317.844,1301.555z"/>
	<path style="fill:#68B42E;" d="M1407.016,1698.738c11.121,59.508-110.402,78.813-121.527,19.301
		c-11.141-59.52,40.586-117.422,40.586-117.422S1395.871,1639.219,1407.016,1698.738z"/>
	<path style="fill:#68B42E;" d="M645.098,1698.738c-11.117,59.508,110.406,78.813,121.531,19.301
		c11.141-59.52-40.59-117.422-40.59-117.422S656.242,1639.219,645.098,1698.738z"/>
	<path style="fill:#68B42E;" d="M745.445,1301.555c-11.117,59.508,40.602,117.414,40.602,117.414s69.805-38.602,80.93-98.113
		c11.137-59.516-40.59-117.414-40.59-117.414S756.594,1242.035,745.445,1301.555z"/>
	<path style="fill:#68B42E;" d="M1420.285,773.75c8.133,20.93-6.645,44.938-6.645,44.938s-27.957-9.918-36.086-30.848
		c-8.129-20.922,6.641-44.934,6.641-44.934S1412.156,752.828,1420.285,773.75z"/>
	<path style="fill:#68B42E;" d="M646.82,773.75c-8.133,20.93,6.644,44.938,6.644,44.938s27.957-9.918,36.086-30.848
		c8.129-20.922-6.641-44.934-6.641-44.934S654.949,752.828,646.82,773.75z"/>
	<path style="fill:#68B42E;" d="M926.473,878.848c0,22.227-22.691,40.25-22.691,40.25s-22.691-18.023-22.691-40.25
		c0-22.223,22.691-40.25,22.691-40.25S926.473,856.625,926.473,878.848z"/>
	<path style="fill:#D90667;" d="M1141.59,483.512c-17.113-26.902-43.52-47.406-69.289-66.715
		c-19.859-14.883-44.59-47.031-72.578-27.359c-18.301,12.859-32.684,23.055-55.152,29.691
		c-42.609,12.594-91.691,26.105-124.332,56.883c-13,12.258-11.32,24.375-13.051,40.344c-1.313,12.109-14.672,34.641-9.703,46.027
		c5.527,12.68,33.93,11.465,45.859,14.996c20.68,6.109,37.945,18.934,59.914,21.406c29.148,3.277,58.539-3.859,87.926-0.777
		c25.09,2.633,41.531,1.586,64.207-9.914c-17.684-7.398-41.406-4.711-60.66-8.73c-5.84-1.219-30.516-1.871-32.656-8.75
		c-3.234-10.406,21.637-12.566,28.207-13.691c19.824-3.395,41.223-7.617,61.43-7.617c10.984,0,21.629,4.395,32.504,3.219
		c12.152-1.313,24.18-7.539,36.305-9.871c11.148-2.156,39.023-6.703,41.91-18.387
		C1165.184,513.144,1147.336,492.547,1141.59,483.512z"/>
	<path style="fill:#FFD600;" d="M1120.625,650.195c-0.637,18.219-66.086,30.738-146.188,27.957
		c-80.102-2.781-144.516-19.809-143.887-38.031c0.633-18.223,64.934,2.258,145.039,5.039
		C1055.691,647.941,1121.254,631.973,1120.625,650.195z"/>
	<path style="fill:#FFD600;" d="M1255.102,965.535c1.773,18.144-61.465,39.164-141.234,46.949
		c-79.773,7.777-145.863-0.629-147.641-18.77c-1.77-18.148,64.668-6.305,144.441-14.09
		C1190.441,971.844,1253.34,947.391,1255.102,965.535z"/>
</g>
</svg>
